
<svg width="18" height="18" viewBox="0 0 16 16" fill="none" xmlns="http://www.w3.org/2000/svg">
<path d="M12.4866 3.60608L11.6333 4.27275L7.99997 6.97275L4.36663 4.24608L3.5133 3.57941C3.31227 3.41311 3.06687 3.30944 2.80749 3.28125C2.54812 3.25305 2.28617 3.30158 2.05411 3.4208C1.82204 3.54003 1.63005 3.72472 1.50193 3.952C1.3738 4.17927 1.31517 4.43914 1.3333 4.69941V12.4261C1.3333 12.6665 1.42882 12.8972 1.59886 13.0672C1.76889 13.2372 1.9995 13.3327 2.23997 13.3327H4.36663V8.18608L7.99997 10.9127L11.6333 8.18608V13.3327H13.76C14.0004 13.3327 14.231 13.2372 14.4011 13.0672C14.5711 12.8972 14.6666 12.6665 14.6666 12.4261V4.69941C14.6792 4.44139 14.6164 4.18528 14.4861 3.96223C14.3558 3.73917 14.1635 3.55878 13.9326 3.44297C13.7017 3.32716 13.4421 3.28092 13.1854 3.30988C12.9287 3.33883 12.6859 3.44174 12.4866 3.60608Z" fill="#777778"/>
</svg>
