
<svg width="20" height="20" viewBox="0 0 20 20" fill="none" xmlns="http://www.w3.org/2000/svg">
<path d="M15.175 10.9412L8.3225 16.9362C7.515 17.6437 6.25 17.0687 6.25 15.995V4.00498C6.24979 3.76467 6.31886 3.5294 6.44893 3.32734C6.57899 3.12528 6.76455 2.96499 6.98337 2.86567C7.20219 2.76635 7.445 2.73221 7.68272 2.76733C7.92045 2.80246 8.14301 2.90537 8.32375 3.06373L15.1737 9.05873C15.308 9.17606 15.4156 9.32075 15.4893 9.48309C15.5631 9.64544 15.6012 9.82168 15.6012 9.99998C15.6012 10.1783 15.5631 10.3545 15.4893 10.5169C15.4156 10.6792 15.308 10.8239 15.1737 10.9412H15.175Z" fill="white"/>
</svg>
